PathFileType  4	(X/Y/Z) C:\Users\antoi\Documents\MyRepositories\mobilecap\ResultsAnalysis
DataRate	CameraRate	NumFrames	NumMarkers	Units	OrigDataRate	OrigDataStartFrame	OrigNumFrames
100.0	100.0	4	51	mm	100.0	43	341
Frame#	Time	r_knee			r_shank_antsup			r_ankle			r_calc			r_5meta			r_toe			L_knee			L_shank_antsup			L_ankle			L_calc			L_5meta			L_toe			r_sh2			r_sh3			r_sh4			L_sh2			L_sh3			r_thigh1			r_thigh2			r_thigh3			r_thigh4			r_thigh5			L_thigh1			L_thigh2			L_thigh3			L_thigh4			r.ASIS			r.PSIS			L.ASIS			L.PSIS			C7			R_Shoulder			L_Shoulder			R_Sternum			L_Sternum			R_humerus			R_elbow_med			R_elbow_lat			R_forearm			R_wrist_radius			R_wrist_ulna			L_humerus			L_elbow_med			L_elbow_lat			L_forearm			L_wrist_radius			L_wrist_ulna			R_HJC			L_HJC			R_HJC_reg			L_HJC_reg			
		X1	Y1	Z1	X2	Y2	Z2	X3	Y3	Z3	X4	Y4	Z4	X5	Y5	Z5	X6	Y6	Z6	X7	Y7	Z7	X8	Y8	Z8	X9	Y9	Z9	X10	Y10	Z10	X11	Y11	Z11	X12	Y12	Z12	X13	Y13	Z13	X14	Y14	Z14	X15	Y15	Z15	X16	Y16	Z16	X17	Y17	Z17	X18	Y18	Z18	X19	Y19	Z19	X20	Y20	Z20	X21	Y21	Z21	X22	Y22	Z22	X23	Y23	Z23	X24	Y24	Z24	X25	Y25	Z25	X26	Y26	Z26	X27	Y27	Z27	X28	Y28	Z28	X29	Y29	Z29	X30	Y30	Z30	X31	Y31	Z31	X32	Y32	Z32	X33	Y33	Z33	X34	Y34	Z34	X35	Y35	Z35	X36	Y36	Z36	X37	Y37	Z37	X38	Y38	Z38	X39	Y39	Z39	X40	Y40	Z40	X41	Y41	Z41	X42	Y42	Z42	X43	Y43	Z43	X44	Y44	Z44	X45	Y45	Z45	X46	Y46	Z46	X47	Y47	Z47	X48	Y48	Z48	X49	Y49	Z49	X50	Y50	Z50	X51	Y51	Z51	

43	0.42000000	-1177.85269	806.33968	-422.47391	-1214.23370	760.81683	-394.22777	-1236.43187	407.20178	-455.05581	-1293.74903	365.87516	-510.53733	-1118.67399	347.29208	-410.39700	-1074.29415	367.83210	-463.68902	-1180.95571	805.03394	-746.53080	-1163.61172	718.45954	-753.84626	-1239.03398	404.09769	-705.43776	-1298.33398	365.84240	-654.65985	-1120.36246	351.24746	-734.44251	-1075.85136	369.70489	-679.70354	-1222.96706	645.83511	-391.60878	-1145.00572	758.94481	-429.88275	-1155.49352	644.38924	-442.72710	-1248.81759	736.27749	-768.65501	-1260.75044	614.70422	-761.15074	-1064.44855	1092.84434	-480.13023	-1065.32982	981.68283	-468.29219	-1088.92411	965.98669	-405.51432	-1132.10136	1101.72071	-392.06843	-1136.46405	987.36226	-384.41250	-1112.20382	1124.92147	-761.48920	-1122.61586	983.80897	-770.03496	-1223.65934	1132.39599	-764.04431	-1235.04423	992.37898	-746.25436	-1078.71722	1277.91263	-455.24381	-1266.86691	1311.67084	-536.14413	-1069.31728	1266.28182	-692.79529	-1264.35919	1311.48259	-636.00989	-1203.82597	1784.60567	-591.89637	-1140.96994	1734.90903	-425.54605	-1152.61915	1731.10901	-751.85358	-1108.12533	1675.64148	-572.49316	-1106.62628	1674.22360	-609.89386	-1161.11353	1499.29736	-338.40193	-1220.47394	1402.30975	-375.07278	-1189.33966	1410.35393	-314.07785	-1061.13005	1341.36258	-321.98252	-968.73274	1304.32379	-352.39018	-988.59400	1270.24621	-333.02284	-1190.01808	1502.36697	-836.16441	-1243.84791	1394.60619	-791.88562	-1222.11808	1400.36776	-854.79106	-1091.82859	1329.75123	-835.00395	-997.68021	1292.48869	-793.62178	-1020.47441	1255.23840	-804.03438	-1152.51835	1196.06352	-491.14970	-1157.82655	1198.53704	-681.73190	-1146.65608	1201.22644	-489.83636	-1142.71253	1200.93020	-646.87986	
44	0.43000000	-1177.83718	806.35134	-422.48334	-1213.66715	761.27876	-394.19557	-1236.37030	407.34954	-455.21684	-1293.74620	365.87475	-510.54967	-1119.40122	346.00560	-412.09328	-1074.28890	367.82637	-463.69599	-1180.91555	805.03114	-746.50964	-1163.55877	718.44600	-753.82530	-1239.01031	404.10814	-705.46054	-1298.30916	365.84037	-654.68030	-1120.36508	351.25300	-734.46074	-1075.86423	369.68859	-679.70839	-1223.08911	646.33494	-391.53851	-1144.93951	758.99979	-429.83084	-1155.46086	644.36531	-442.73746	-1248.75020	736.27624	-768.61528	-1260.72365	614.69959	-761.11031	-1064.59421	1092.82482	-480.07429	-1065.44926	981.68674	-468.18383	-1089.10044	966.03855	-405.34989	-1132.29641	1101.71363	-392.03520	-1136.61480	987.39029	-384.34254	-1112.30367	1124.89455	-761.45630	-1122.64945	983.80300	-770.06285	-1223.80396	1132.30868	-763.87224	-1235.10596	992.33981	-746.20866	-1079.37537	1277.05020	-454.85402	-1266.96881	1311.79142	-536.21074	-1069.62771	1266.10232	-692.86608	-1264.47538	1311.61137	-635.97150	-1203.29562	1784.65425	-591.86599	-1140.31116	1734.94403	-425.55210	-1152.27193	1731.24025	-751.76791	-1107.67312	1675.65435	-572.56138	-1106.19605	1674.19564	-609.95982	-1160.38380	1499.48923	-338.12909	-1219.40757	1402.15134	-374.57962	-1188.29241	1410.46898	-313.74681	-1058.67989	1344.70119	-321.44753	-965.16843	1310.56449	-351.92854	-984.33549	1275.58520	-333.08394	-1190.12180	1502.85957	-836.49150	-1243.69220	1394.67402	-791.99371	-1222.01633	1400.58116	-854.99233	-1089.97233	1333.35357	-834.52596	-995.00095	1299.03967	-792.36643	-1016.70857	1261.07246	-802.56326	-1153.27134	1195.57490	-491.30788	-1158.29664	1198.56814	-681.88634	-1147.49524	1200.94741	-489.53549	-1143.56228	1200.66448	-646.87490	
45	0.44000000	-1177.79571	806.33974	-422.46207	-1213.20490	761.71892	-394.18815	-1236.36346	407.12219	-455.20624	-1293.74581	365.87740	-510.52720	-1119.66635	345.55198	-412.69469	-1074.28538	367.81554	-463.68679	-1180.86490	805.04149	-746.49058	-1163.48888	718.44759	-753.80744	-1238.99446	404.11630	-705.46648	-1298.30108	365.83330	-654.68993	-1120.36214	351.24288	-734.46028	-1075.82808	369.69997	-679.70241	-1222.66644	645.44121	-391.71742	-1144.81274	759.07995	-429.73937	-1155.40900	644.35163	-442.73416	-1248.69366	736.27102	-768.55057	-1260.68381	614.69149	-761.05185	-1064.67677	1092.80256	-480.00991	-1065.55880	981.66946	-468.12209	-1089.27516	966.08565	-405.27744	-1132.42523	1101.73318	-391.93433	-1136.72620	987.42808	-384.27131	-1112.39251	1124.89507	-761.44933	-1122.69153	983.82714	-770.05686	-1223.94364	1132.24020	-763.76518	-1235.17373	992.30848	-746.13278	-1079.59479	1276.07831	-454.37080	-1267.09698	1311.90119	-536.27433	-1069.52403	1266.49980	-692.61221	-1264.72833	1311.86833	-635.71929	-1202.74874	1784.71758	-591.79386	-1139.69396	1734.97832	-425.57499	-1151.89964	1731.36685	-751.72922	-1107.24961	1675.64737	-572.67595	-1105.74558	1674.20096	-609.97206	-1159.61754	1499.74162	-337.78577	-1218.37296	1402.06048	-373.87126	-1187.17888	1410.69714	-313.17925	-1056.13810	1348.29766	-320.91180	-961.59809	1317.00216	-351.63772	-980.18425	1281.17310	-333.41528	-1190.04654	1503.30648	-836.72534	-1243.35276	1394.69121	-792.06305	-1221.72266	1400.73700	-855.18778	-1088.10969	1336.88420	-833.93062	-992.34529	1305.55036	-791.05414	-1013.00685	1266.90070	-800.95439	-1153.73149	1195.04228	-491.53611	-1158.41615	1199.01299	-682.10545	-1147.87994	1200.85153	-489.13489	-1144.13063	1200.80107	-646.59963	
46	0.45000000	-1177.72733	806.29851	-422.41792	-1213.52474	761.42318	-394.22300	-1236.38882	406.29203	-455.03105	-1293.73656	365.90930	-510.50636	-1119.30846	346.12259	-411.92616	-1074.28321	367.80369	-463.67806	-1180.81114	805.05985	-746.47745	-1163.39869	718.47114	-753.79611	-1238.98423	404.12678	-705.46296	-1298.30664	365.83889	-654.68626	-1120.35720	351.23917	-734.45060	-1075.75433	369.72288	-679.68598	-1222.23565	644.56570	-391.89965	-1144.68808	759.11936	-429.65886	-1155.32395	644.35742	-442.74507	-1248.63630	736.26745	-768.45446	-1260.64436	614.69454	-760.99504	-1064.72815	1092.82077	-479.99038	-1065.63860	981.68080	-468.09915	-1089.40032	966.14617	-405.21292	-1132.57906	1101.75829	-391.79013	-1136.86816	987.39891	-384.25221	-1112.49016	1124.90756	-761.44855	-1122.74098	983.84998	-770.03833	-1224.04942	1132.24757	-763.80160	-1235.23460	992.28969	-746.07978	-1078.87888	1276.13693	-454.27634	-1267.16419	1311.98414	-536.24073	-1068.61759	1267.46322	-691.71486	-1264.95341	1312.04314	-635.52447	-1202.17379	1784.82294	-591.80239	-1139.15560	1734.97308	-425.62310	-1151.45436	1731.49849	-751.84194	-1106.81010	1675.62182	-572.74834	-1105.28270	1674.22241	-610.02914	-1158.76881	1500.06853	-337.34906	-1217.21833	1401.82437	-373.54386	-1186.03673	1410.98332	-312.55560	-1053.58372	1351.97957	-320.57634	-958.25060	1323.49130	-351.41041	-976.03289	1286.98000	-333.78837	-1189.78808	1503.64233	-836.87792	-1242.84990	1394.69344	-792.02108	-1221.21002	1400.87318	-855.46732	-1086.19558	1340.33621	-833.08379	-989.73060	1311.97786	-789.74222	-1009.33051	1272.75399	-799.36619	-1153.22620	1195.15408	-491.48809	-1157.65220	1199.66804	-682.05708	-1147.03059	1201.50702	-488.86917	-1143.53883	1201.60051	-645.78649	
